<?xml version="1.0" encoding="UTF-8" standalone="no"?><svg xmlns="http://www.w3.org/2000/svg" xmlns:xlink="http://www.w3.org/1999/xlink" fill="#000000" height="1144" overflow="hidden" preserveAspectRatio="xMidYMid meet" version="1" viewBox="0.0 0.0 5765.0 1144.0" width="5765" zoomAndPan="magnify"><defs><clipPath id="a"><path d="M-13693 -3233H-7928V-2089H-13693z"/></clipPath></defs><g clip-path="url(#a)" fill-rule="evenodd" transform="translate(13693 3233)"><g id="change1_1"><path d="M-12952.9-3233-7928-3233-7928-2395.1C-7928-2226.05-8065.05-2089-8234.1-2089L-13259-2089-13259-2926.9C-13259-3095.95-13122-3233-12952.9-3233Z" fill="#f8a111"/></g><g id="change2_1"><path d="M-13425.4-3233-12548-3233-12548-2356.63C-12548-2208.82-12667.8-2089-12815.6-2089L-13693-2089-13693-2965.37C-13693-3113.18-13573.2-3233-13425.4-3233Z" fill="#ffffff"/></g><g id="change3_1"><path d="M-13120-2758.66C-13125-2726.53-13135.3-2695.45-13150.6-2666.76L-13187.3-2598.12-13210.7-2644.77C-13216.2-2619.75-13226.9-2596.16-13242.1-2575.57L-13248.4-2567.12C-13249.1-2566.24-13249.7-2565.33-13250.4-2564.39-13269.1-2539.13-13281.4-2509.68-13285.9-2478.6-13286.9-2472.11-13287.5-2466.17-13287.5-2461.95-13287.5-2380.8-13212.5-2315.01-13120-2315.01-13027.5-2315.01-12950.6-2380.82-12952.5-2461.95L-12952.5-2461.95C-12953.3-2495.21-12967.2-2541.27-12967.2-2541.27-12975.8-2577.11-12991-2611.95-13008.4-2644.48L-13030.3-2685.58C-13031.8-2663.26-13037.4-2641.41-13046.8-2621.14L-13048-2618.6-13060.3-2656.36C-13067.4-2675.91-13077.5-2692.01-13088.1-2709.88-13088.1-2709.88-13120-2758.66-13120-2758.66ZM-13120-3022C-13111.9-2969.63-13095-2918.99-13070.1-2872.23L-13010.4-2760.37-12972.2-2836.39C-12963.3-2795.61-12945.8-2757.17-12920.9-2723.62L-12910.7-2709.85C-12909.7-2708.42-12908.6-2706.93-12907.4-2705.4-12877-2664.24-12857-2616.23-12849.6-2565.59-12848-2555.01-12847-2545.34-12847-2538.45-12847-2406.21-12969.2-2299-13120-2299-13270.7-2299-13396-2406.24-13392.9-2538.45L-13392.9-2538.45C-13391.7-2592.65-13369-2667.71-13369-2667.71-13355-2726.13-13330.2-2782.91-13301.9-2835.92L-13266.2-2902.9C-13263.8-2866.53-13254.6-2830.91-13239.2-2797.88L-13237.3-2793.74-13217.3-2855.27C-13205.7-2887.14-13189.3-2913.38-13171.9-2942.5-13171.9-2942.5-13120-3022-13120-3022Z" fill="#ef7230"/></g></g></svg>